<svg width="61" height="17" viewBox="0 0 61 17" fill="none" xmlns="http://www.w3.org/2000/svg">
<path opacity="0.35" fill-rule="evenodd" clip-rule="evenodd" d="M36.5 1.5H55.5C56.8807 1.5 58 2.61929 58 4V10.5C58 11.8807 56.8807 13 55.5 13H36.5C35.1193 13 34 11.8807 34 10.5V4C34 2.61929 35.1193 1.5 36.5 1.5ZM36.5 2.5C35.6716 2.5 35 3.17157 35 4V10.5C35 11.3284 35.6716 12 36.5 12H55.5C56.3284 12 57 11.3284 57 10.5V4C57 3.17157 56.3284 2.5 55.5 2.5H36.5Z" fill="white"/>
<path opacity="0.4" fill-rule="evenodd" clip-rule="evenodd" d="M59 4.80078C59.8904 5.25596 60.5 6.18226 60.5 7.25093C60.5 8.3196 59.8904 9.24589 59 9.70107V4.80078Z" fill="white"/>
<path fill-rule="evenodd" clip-rule="evenodd" d="M37 3.5H55C55.5523 3.5 56 3.94772 56 4.5V10C56 10.5523 55.5523 11 55 11H37C36.4477 11 36 10.5523 36 10V4.5C36 3.94772 36.4477 3.5 37 3.5Z" fill="white"/>
<path d="M4.75586 11.3008H3.70117V4.58008C3.44727 4.82227 3.11328 5.06445 2.69922 5.30664C2.28906 5.54883 1.91992 5.73047 1.5918 5.85156V4.83203C2.18164 4.55469 2.69727 4.21875 3.13867 3.82422C3.58008 3.42969 3.89258 3.04687 4.07617 2.67578H4.75586V11.3008ZM7.46289 7.06445C7.46289 6.04883 7.56641 5.23242 7.77344 4.61523C7.98438 3.99414 8.29492 3.51562 8.70508 3.17969C9.11914 2.84375 9.63867 2.67578 10.2637 2.67578C10.7246 2.67578 11.1289 2.76953 11.4766 2.95703C11.8242 3.14062 12.1113 3.4082 12.3379 3.75977C12.5645 4.10742 12.7422 4.5332 12.8711 5.03711C13 5.53711 13.0645 6.21289 13.0645 7.06445C13.0645 8.07227 12.9609 8.88672 12.7539 9.50781C12.5469 10.125 12.2363 10.6035 11.8223 10.9434C11.4121 11.2793 10.8926 11.4473 10.2637 11.4473C9.43555 11.4473 8.78516 11.1504 8.3125 10.5566C7.74609 9.8418 7.46289 8.67773 7.46289 7.06445ZM8.54688 7.06445C8.54688 8.47461 8.71094 9.41406 9.03906 9.88281C9.37109 10.3477 9.7793 10.5801 10.2637 10.5801C10.748 10.5801 11.1543 10.3457 11.4824 9.87695C11.8145 9.4082 11.9805 8.4707 11.9805 7.06445C11.9805 5.65039 11.8145 4.71094 11.4824 4.24609C11.1543 3.78125 10.7441 3.54883 10.252 3.54883C9.76758 3.54883 9.38086 3.75391 9.0918 4.16406C8.72852 4.6875 8.54688 5.6543 8.54688 7.06445ZM14.1426 7.06445C14.1426 6.04883 14.2461 5.23242 14.4531 4.61523C14.6641 3.99414 14.9746 3.51562 15.3848 3.17969C15.7988 2.84375 16.3184 2.67578 16.9434 2.67578C17.4043 2.67578 17.8086 2.76953 18.1562 2.95703C18.5039 3.14062 18.791 3.4082 19.0176 3.75977C19.2441 4.10742 19.4219 4.5332 19.5508 5.03711C19.6797 5.53711 19.7441 6.21289 19.7441 7.06445C19.7441 8.07227 19.6406 8.88672 19.4336 9.50781C19.2266 10.125 18.916 10.6035 18.502 10.9434C18.0918 11.2793 17.5723 11.4473 16.9434 11.4473C16.1152 11.4473 15.4648 11.1504 14.9922 10.5566C14.4258 9.8418 14.1426 8.67773 14.1426 7.06445ZM15.2266 7.06445C15.2266 8.47461 15.3906 9.41406 15.7188 9.88281C16.0508 10.3477 16.459 10.5801 16.9434 10.5801C17.4277 10.5801 17.834 10.3457 18.1621 9.87695C18.4941 9.4082 18.6602 8.4707 18.6602 7.06445C18.6602 5.65039 18.4941 4.71094 18.1621 4.24609C17.834 3.78125 17.4238 3.54883 16.9316 3.54883C16.4473 3.54883 16.0605 3.75391 15.7715 4.16406C15.4082 4.6875 15.2266 5.6543 15.2266 7.06445ZM21.0215 4.77344C21.0215 4.16016 21.1758 3.63867 21.4844 3.20898C21.793 2.7793 22.2402 2.56445 22.8262 2.56445C23.3652 2.56445 23.8105 2.75781 24.1621 3.14453C24.5176 3.52734 24.6953 4.0918 24.6953 4.83789C24.6953 5.56445 24.5156 6.125 24.1562 6.51953C23.8008 6.91016 23.3613 7.10547 22.8379 7.10547C22.3184 7.10547 21.8848 6.91211 21.5371 6.52539C21.1934 6.13867 21.0215 5.55469 21.0215 4.77344ZM22.8555 3.29102C22.5938 3.29102 22.375 3.4043 22.1992 3.63086C22.0273 3.85742 21.9414 4.27344 21.9414 4.87891C21.9414 5.42969 22.0293 5.81836 22.2051 6.04492C22.3809 6.26758 22.5977 6.37891 22.8555 6.37891C23.1211 6.37891 23.3398 6.26562 23.5117 6.03906C23.6875 5.8125 23.7754 5.39844 23.7754 4.79688C23.7754 4.24219 23.6875 3.85352 23.5117 3.63086C23.3359 3.4043 23.1172 3.29102 22.8555 3.29102ZM22.8613 11.6172L27.5605 2.56445H28.416L23.7344 11.6172H22.8613ZM26.5762 9.28516C26.5762 8.66797 26.7305 8.14648 27.0391 7.7207C27.3477 7.29102 27.7969 7.07617 28.3867 7.07617C28.9258 7.07617 29.3711 7.26953 29.7227 7.65625C30.0781 8.03906 30.2559 8.60352 30.2559 9.34961C30.2559 10.0762 30.0762 10.6367 29.7168 11.0312C29.3613 11.4219 28.9199 11.6172 28.3926 11.6172C27.873 11.6172 27.4395 11.4238 27.0918 11.0371C26.748 10.6465 26.5762 10.0625 26.5762 9.28516ZM28.416 7.80273C28.1504 7.80273 27.9297 7.91602 27.7539 8.14258C27.582 8.36914 27.4961 8.78516 27.4961 9.39062C27.4961 9.9375 27.584 10.3242 27.7598 10.5508C27.9355 10.7773 28.1523 10.8906 28.4102 10.8906C28.6797 10.8906 28.9004 10.7773 29.0723 10.5508C29.248 10.3242 29.3359 9.91016 29.3359 9.30859C29.3359 8.75391 29.248 8.36523 29.0723 8.14258C28.8965 7.91602 28.6777 7.80273 28.416 7.80273Z" fill="white"/>
</svg>
