<svg width="89" height="16" viewBox="0 0 89 16" fill="none" xmlns="http://www.w3.org/2000/svg">
<g clip-path="url(#clip0_385_2239)">
<path fill-rule="evenodd" clip-rule="evenodd" d="M16.5 2H17.5C18.0523 2 18.5 2.44772 18.5 3V11C18.5 11.5523 18.0523 12 17.5 12H16.5C15.9477 12 15.5 11.5523 15.5 11V3C15.5 2.44772 15.9477 2 16.5 2Z" fill="white"/>
<path d="M13 4H12C11.4477 4 11 4.44772 11 5V11C11 11.5523 11.4477 12 12 12H13C13.5523 12 14 11.5523 14 11V5C14 4.44772 13.5523 4 13 4Z" fill="white"/>
<path d="M7.5 6H8.5C9.05228 6 9.5 6.44772 9.5 7V11C9.5 11.5523 9.05228 12 8.5 12H7.5C6.94772 12 6.5 11.5523 6.5 11V7C6.5 6.44772 6.94772 6 7.5 6Z" fill="white"/>
<path d="M3 7.5H4C4.55228 7.5 5 7.94772 5 8.5V11C5 11.5523 4.55228 12 4 12H3C2.44772 12 2 11.5523 2 11V8.5C2 7.94772 2.44772 7.5 3 7.5Z" fill="white"/>
<path d="M25.9258 11V2.41016H29.166C29.7363 2.41016 30.1719 2.4375 30.4727 2.49219C30.8945 2.5625 31.248 2.69727 31.5332 2.89648C31.8184 3.0918 32.0469 3.36719 32.2188 3.72266C32.3945 4.07812 32.4824 4.46875 32.4824 4.89453C32.4824 5.625 32.25 6.24414 31.7852 6.75195C31.3203 7.25586 30.4805 7.50781 29.2656 7.50781H27.0625V11H25.9258ZM27.0625 6.49414H29.2832C30.0176 6.49414 30.5391 6.35742 30.8477 6.08398C31.1562 5.81055 31.3105 5.42578 31.3105 4.92969C31.3105 4.57031 31.2188 4.26367 31.0352 4.00977C30.8555 3.75195 30.6172 3.58203 30.3203 3.5C30.1289 3.44922 29.7754 3.42383 29.2598 3.42383H27.0625V6.49414ZM33.7332 11V4.77734H34.6824V5.7207C34.9246 5.2793 35.1473 4.98828 35.3504 4.84766C35.5574 4.70703 35.784 4.63672 36.0301 4.63672C36.3855 4.63672 36.7469 4.75 37.1141 4.97656L36.7508 5.95508C36.493 5.80273 36.2352 5.72656 35.9773 5.72656C35.7469 5.72656 35.5398 5.79688 35.3562 5.9375C35.1727 6.07422 35.0418 6.26562 34.9637 6.51172C34.8465 6.88672 34.7879 7.29688 34.7879 7.74219V11H33.7332ZM37.2984 7.88867C37.2984 6.73633 37.6187 5.88281 38.2594 5.32812C38.7945 4.86719 39.4469 4.63672 40.2164 4.63672C41.0719 4.63672 41.7711 4.91797 42.3141 5.48047C42.857 6.03906 43.1285 6.8125 43.1285 7.80078C43.1285 8.60156 43.0074 9.23242 42.7652 9.69336C42.527 10.1504 42.1773 10.5059 41.7164 10.7598C41.2594 11.0137 40.7594 11.1406 40.2164 11.1406C39.3453 11.1406 38.6402 10.8613 38.1012 10.3027C37.566 9.74414 37.2984 8.93945 37.2984 7.88867ZM38.3824 7.88867C38.3824 8.68555 38.5562 9.2832 38.9039 9.68164C39.2516 10.0762 39.6891 10.2734 40.2164 10.2734C40.7398 10.2734 41.1754 10.0742 41.523 9.67578C41.8707 9.27734 42.0445 8.66992 42.0445 7.85352C42.0445 7.08398 41.8687 6.50195 41.5172 6.10742C41.1695 5.70898 40.7359 5.50977 40.2164 5.50977C39.6891 5.50977 39.2516 5.70703 38.9039 6.10156C38.5562 6.49609 38.3824 7.0918 38.3824 7.88867ZM46.0492 11L43.682 4.77734H44.7953L46.1313 8.50391C46.2758 8.90625 46.4086 9.32422 46.5297 9.75781C46.6234 9.42969 46.7543 9.03516 46.9223 8.57422L48.3051 4.77734H49.3891L47.0336 11H46.0492ZM50.2766 3.62305V2.41016H51.3312V3.62305H50.2766ZM50.2766 11V4.77734H51.3312V11H50.2766ZM56.9297 11V10.2148C56.5352 10.832 55.9551 11.1406 55.1895 11.1406C54.6934 11.1406 54.2363 11.0039 53.8184 10.7305C53.4043 10.457 53.082 10.0762 52.8516 9.58789C52.625 9.0957 52.5117 8.53125 52.5117 7.89453C52.5117 7.27344 52.6152 6.71094 52.8223 6.20703C53.0293 5.69922 53.3398 5.31055 53.7539 5.04102C54.168 4.77148 54.6309 4.63672 55.1426 4.63672C55.5176 4.63672 55.8516 4.7168 56.1445 4.87695C56.4375 5.0332 56.6758 5.23828 56.8594 5.49219V2.41016H57.9082V11H56.9297ZM53.5957 7.89453C53.5957 8.69141 53.7637 9.28711 54.0996 9.68164C54.4355 10.0762 54.832 10.2734 55.2891 10.2734C55.75 10.2734 56.1406 10.0859 56.4609 9.71094C56.7852 9.33203 56.9473 8.75586 56.9473 7.98242C56.9473 7.13086 56.7832 6.50586 56.4551 6.10742C56.127 5.70898 55.7227 5.50977 55.2422 5.50977C54.7734 5.50977 54.3809 5.70117 54.0645 6.08398C53.752 6.4668 53.5957 7.07031 53.5957 7.89453ZM63.782 8.99609L64.8719 9.13086C64.7 9.76758 64.3816 10.2617 63.9168 10.6133C63.452 10.9648 62.8582 11.1406 62.1355 11.1406C61.2254 11.1406 60.5027 10.8613 59.9676 10.3027C59.4363 9.74023 59.1707 8.95312 59.1707 7.94141C59.1707 6.89453 59.4402 6.08203 59.9793 5.50391C60.5184 4.92578 61.2176 4.63672 62.077 4.63672C62.909 4.63672 63.5887 4.91992 64.116 5.48633C64.6434 6.05273 64.907 6.84961 64.907 7.87695C64.907 7.93945 64.9051 8.0332 64.9012 8.1582H60.2605C60.2996 8.8418 60.493 9.36523 60.8406 9.72852C61.1883 10.0918 61.6219 10.2734 62.1414 10.2734C62.5281 10.2734 62.8582 10.1719 63.1316 9.96875C63.4051 9.76562 63.6219 9.44141 63.782 8.99609ZM60.3191 7.29102H63.7938C63.7469 6.76758 63.6141 6.375 63.3953 6.11328C63.0594 5.70703 62.6238 5.50391 62.0887 5.50391C61.6043 5.50391 61.1961 5.66602 60.8641 5.99023C60.5359 6.31445 60.3543 6.74805 60.3191 7.29102ZM66.1402 11V4.77734H67.0895V5.7207C67.3316 5.2793 67.5543 4.98828 67.7574 4.84766C67.9645 4.70703 68.191 4.63672 68.4371 4.63672C68.7926 4.63672 69.1539 4.75 69.5211 4.97656L69.1578 5.95508C68.9 5.80273 68.6422 5.72656 68.3844 5.72656C68.1539 5.72656 67.9469 5.79688 67.7633 5.9375C67.5797 6.07422 67.4488 6.26562 67.3707 6.51172C67.2535 6.88672 67.1949 7.29688 67.1949 7.74219V11H66.1402Z" fill="white"/>
<path fill-rule="evenodd" clip-rule="evenodd" d="M87.9828 4.52294C86.0717 2.89057 83.6574 2 81.1327 2C78.6006 2 76.1795 2.89589 74.2661 4.53708L74.1036 4.67646C73.9722 4.78918 73.9647 4.98954 74.0873 5.11176L75.2142 6.23557C75.3236 6.34466 75.4985 6.3521 75.6168 6.2527L75.7564 6.13541C77.2633 4.86943 79.1552 4.18035 81.1327 4.18035C83.1035 4.18035 84.9894 4.86472 86.494 6.12283L86.6336 6.23952C86.7519 6.33847 86.9264 6.33084 87.0356 6.22195L88.1627 5.09797C88.2855 4.97558 88.2777 4.77488 88.1459 4.66228L87.9828 4.52294ZM81.1327 5.46979C82.7236 5.46979 84.251 5.99754 85.4953 6.97486L85.6711 7.11298C85.8113 7.2231 85.8236 7.43059 85.6974 7.55643L84.5667 8.68407C84.4621 8.78837 84.2966 8.80034 84.178 8.7122L84.0401 8.60976C83.1997 7.98518 82.1864 7.65015 81.1327 7.65015C80.0726 7.65015 79.0533 7.98934 78.2101 8.62109L78.0721 8.72448C77.9535 8.81334 77.7874 8.80164 77.6825 8.69703L76.5522 7.56981C76.4262 7.44423 76.4382 7.23727 76.5777 7.12694L76.7526 6.98871C77.9998 6.00267 79.5342 5.46979 81.1327 5.46979ZM81.1327 8.93959C81.7722 8.93959 82.3936 9.10763 82.9411 9.42805L83.163 9.55788C83.3311 9.65631 83.3607 9.88666 83.2228 10.0242L81.3287 11.913C81.2124 12.029 81.0238 12.029 80.9074 11.913L79.0255 10.0363C78.8882 9.8994 78.9169 9.67022 79.0836 9.57107L79.303 9.44065C79.8555 9.11212 80.4848 8.93959 81.1327 8.93959Z" fill="white"/>
</g>
<defs>
<clipPath id="clip0_385_2239">
<rect width="89" height="16" fill="white"/>
</clipPath>
</defs>
</svg>
